<svg width="145" height="144" viewBox="0 0 145 144" fill="none" xmlns="http://www.w3.org/2000/svg">
<mask id="mask0_29267_19323" style="mask-type:alpha" maskUnits="userSpaceOnUse" x="0" y="0" width="145" height="144">
<path d="M144.5 72C144.5 111.765 112.265 144 72.5 144C32.7355 144 0.5 111.765 0.5 72C0.5 32.2355 32.7355 0 72.5 0C112.265 0 144.5 32.2355 144.5 72Z" fill="#70ACDE"/>
</mask>
<g mask="url(#mask0_29267_19323)">
<circle cx="72.3468" cy="72.1701" r="72.0002" fill="#70ACDE"/>
<circle cx="72.3468" cy="72.1701" r="72.0002" fill="url(#paint0_linear_29267_19323)" fill-opacity="0.2"/>
<path d="M-0.435658 6.96251C18.2293 -9.3426 44.8028 -9.46174 58.9179 6.69615C69.3729 18.6644 70.0596 36.2057 62.1279 51.1241C61.9859 51.3912 62.0272 51.7193 62.2262 51.9471C69.1959 59.9255 67.3746 72.92 58.1583 80.9711C48.9421 89.0221 35.8208 89.081 28.8512 81.1027C27.0247 79.0118 24.4024 77.5453 21.6308 77.7079C10.0407 78.3879 -1.1069 74.4043 -8.67394 65.7421C-22.7889 49.5842 -19.1005 23.2676 -0.435658 6.96251Z" fill="#99E587"/>
<path d="M105.925 19.5247C114.241 17.7354 122.239 22.1213 123.788 29.3209C125.337 36.5205 119.851 43.8076 111.534 45.597C110.283 45.8661 109.04 45.9955 107.824 45.9967C105.099 45.9993 102.343 46.6293 99.7554 47.4852C95.8552 48.7753 91.6784 47.9602 89.1193 45.0308C85.5469 40.9414 86.4803 34.2806 91.2043 30.1539C91.4067 29.977 91.6129 29.8077 91.8223 29.646C93.5066 28.3449 95.0929 26.8545 96.4352 25.2028C98.6578 22.4679 101.971 20.3753 105.925 19.5247Z" fill="#99E587"/>
<path d="M92.2047 77.472C102.152 75.3318 111.975 81.772 114.145 91.8568C114.146 91.8633 114.15 91.869 114.156 91.8724C117.882 94.0854 120.633 97.587 121.561 101.897C122.988 108.532 119.687 115.2 113.757 119.027C113.729 119.046 113.732 119.088 113.763 119.102C113.795 119.115 113.814 119.149 113.784 119.167C112.319 120.035 81.5143 138.006 64.4403 124.102C61.3547 121.887 59.1083 118.708 58.2884 114.897C56.3828 106.041 62.902 97.126 72.8492 94.9857C72.8699 94.9812 72.8906 94.9768 72.9114 94.9724C75.5535 94.4123 77.7848 92.3447 78.626 89.7781C80.6068 83.7342 85.6037 78.8923 92.2047 77.472Z" fill="#99E587"/>
<path d="M53.751 46.0938C53.751 48.0958 52.128 49.7188 50.126 49.7188C48.1239 49.7188 46.501 48.0958 46.501 46.0938C46.501 44.0917 48.1239 42.4688 50.126 42.4688C52.128 42.4688 53.751 44.0917 53.751 46.0938Z" fill="#202020"/>
<path d="M77.999 46.0938C77.999 48.0958 76.3761 49.7188 74.374 49.7188C72.372 49.7188 70.749 48.0958 70.749 46.0938C70.749 44.0917 72.372 42.4688 74.374 42.4688C76.3761 42.4688 77.999 44.0917 77.999 46.0938Z" fill="#202020"/>
<path d="M68.8502 54.267C70.0979 53.6573 71.6179 54.127 72.2977 55.3559C72.9775 56.5848 72.5676 58.122 71.388 58.8549L71.2713 58.9233C62.9761 63.5119 55.0071 60.9907 51.7176 58.9218L51.5645 58.8237L51.4532 58.7468C50.3308 57.929 50.0352 56.3656 50.8036 55.1901C51.5721 54.0146 53.123 53.658 54.3224 54.3581L54.4371 54.4291L54.534 54.4911C56.6289 55.8034 62.5225 57.7635 68.7303 54.3295L68.8502 54.267Z" fill="#202020"/>
</g>
<defs>
<linearGradient id="paint0_linear_29267_19323" x1="61.2762" y1="33.8415" x2="114.99" y2="127.641" gradientUnits="userSpaceOnUse">
<stop stop-color="white"/>
<stop offset="1" stop-color="#2887D7"/>
</linearGradient>
</defs>
</svg>
