<svg width="29" height="28" viewBox="0 0 29 28" fill="none" xmlns="http://www.w3.org/2000/svg">
<mask id="mask0_51681_4002" style="mask-type:alpha" maskUnits="userSpaceOnUse" x="0" y="0" width="29" height="28">
<path d="M28.5 14C28.5 21.732 22.232 28 14.5 28C6.76801 28 0.5 21.732 0.5 14C0.5 6.26801 6.76801 0 14.5 0C22.232 0 28.5 6.26801 28.5 14Z" fill="#70ACDE"/>
</mask>
<g mask="url(#mask0_51681_4002)">
<circle cx="14.4701" cy="14.0313" r="14" fill="#70ACDE"/>
<circle cx="14.4701" cy="14.0313" r="14" fill="url(#paint0_linear_51681_4002)" fill-opacity="0.2"/>
<path d="M0.318542 1.34425C3.94783 -1.82619 9.11491 -1.84936 11.8595 1.29245C13.8924 3.61961 14.0259 7.03042 12.4837 9.93122C12.4561 9.98315 12.4641 10.047 12.5028 10.0913C13.858 11.6426 13.5039 14.1693 11.7118 15.7348C9.91977 17.3003 7.36842 17.3117 6.01321 15.7604C5.65805 15.3538 5.14816 15.0687 4.60924 15.1003C2.35561 15.2325 0.188022 14.4579 -1.28335 12.7736C-4.02792 9.63179 -3.31074 4.51468 0.318542 1.34425Z" fill="#99E587"/>
<path d="M20.9994 3.78964C22.6165 3.44171 24.1717 4.29452 24.4729 5.69445C24.7741 7.09438 23.7073 8.5113 22.0902 8.85925C21.847 8.91158 21.6052 8.93674 21.3688 8.93697C20.8389 8.93748 20.3029 9.05997 19.7998 9.22639C19.0415 9.47726 18.2293 9.31877 17.7317 8.74916C17.0371 7.95399 17.2186 6.65884 18.1371 5.85642C18.1765 5.82203 18.2166 5.78911 18.2573 5.75766C18.5848 5.50467 18.8932 5.21487 19.1542 4.89372C19.5864 4.36193 20.2307 3.95503 20.9994 3.78964Z" fill="#99E587"/>
<path d="M18.3317 15.0408C20.2658 14.6246 22.1758 15.8769 22.5978 17.8378C22.598 17.8391 22.5988 17.8402 22.5999 17.8408C23.3245 18.2711 23.8595 18.952 24.0398 19.79C24.3174 21.0802 23.6754 22.3768 22.5224 23.121C22.5169 23.1245 22.5175 23.1328 22.5236 23.1355C22.5297 23.1381 22.5334 23.1447 22.5277 23.1481C22.2428 23.3169 16.253 26.8113 12.933 24.1076C12.333 23.6769 11.8963 23.0588 11.7368 22.3179C11.3663 20.5958 12.6339 18.8624 14.5681 18.4462C14.5721 18.4453 14.5761 18.4445 14.5802 18.4436C15.0939 18.3347 15.5278 17.9327 15.6913 17.4336C16.0765 16.2584 17.0481 15.3169 18.3317 15.0408Z" fill="#99E587"/>
<path d="M9.56176 9.36706C9.56176 9.97537 9.06863 10.4685 8.46033 10.4685C7.85202 10.4685 7.35889 9.97537 7.35889 9.36706C7.35889 8.75876 7.85202 8.26562 8.46033 8.26562C9.06863 8.26562 9.56176 8.75876 9.56176 9.36706Z" fill="#202020"/>
<path d="M16.929 9.36706C16.929 9.97537 16.4358 10.4685 15.8275 10.4685C15.2192 10.4685 14.7261 9.97537 14.7261 9.36706C14.7261 8.75876 15.2192 8.26562 15.8275 8.26562C16.4358 8.26562 16.929 8.75876 16.929 9.36706Z" fill="#202020"/>
<path d="M14.1491 11.8015C14.5282 11.6163 14.9901 11.759 15.1966 12.1324C15.4031 12.5058 15.2786 12.9729 14.9202 13.1955L14.8847 13.2163C12.3643 14.6105 9.94295 13.8445 8.94344 13.2159L8.89693 13.1861L8.86311 13.1627C8.52208 12.9142 8.43224 12.4392 8.66571 12.082C8.89921 11.7248 9.37045 11.6165 9.73488 11.8292L9.76975 11.8508L9.7992 11.8696C10.4357 12.2683 12.2264 12.8639 14.1127 11.8205L14.1491 11.8015Z" fill="#202020"/>
</g>
<defs>
<linearGradient id="paint0_linear_51681_4002" x1="12.3175" y1="6.5785" x2="22.7619" y2="24.8173" gradientUnits="userSpaceOnUse">
<stop stop-color="white"/>
<stop offset="1" stop-color="#2887D7"/>
</linearGradient>
</defs>
</svg>
