<svg width="17" height="16" viewBox="0 0 17 16" fill="none" xmlns="http://www.w3.org/2000/svg">
<path d="M12.8124 15C12.7072 15.0004 12.6045 14.9676 12.519 14.9062L8.49991 11.9925L4.48084 14.9062C4.39498 14.9685 4.29153 15.0019 4.18546 15.0015C4.07939 15.0011 3.97619 14.967 3.89078 14.9041C3.80537 14.8412 3.74218 14.7528 3.71034 14.6516C3.6785 14.5504 3.67966 14.4417 3.71366 14.3412L5.28116 9.69843L1.21866 6.91249C1.13066 6.85221 1.06425 6.76537 1.02912 6.66466C0.993988 6.56395 0.991985 6.45464 1.0234 6.35271C1.05482 6.25078 1.11801 6.16157 1.20374 6.09811C1.28947 6.03465 1.39325 6.00027 1.49991 5.99999H6.51178L8.02428 1.3453C8.05686 1.24481 8.12044 1.15722 8.20589 1.0951C8.29134 1.03297 8.39426 0.999512 8.49991 0.999512C8.60555 0.999512 8.70848 1.03297 8.79393 1.0951C8.87937 1.15722 8.94295 1.24481 8.97553 1.3453L10.488 6.00155H15.4999C15.6067 6.0015 15.7107 6.03564 15.7967 6.09898C15.8827 6.16232 15.9461 6.25152 15.9777 6.35353C16.0094 6.45554 16.0075 6.56499 15.9724 6.66586C15.9373 6.76672 15.8708 6.8537 15.7827 6.91405L11.7187 9.69843L13.2852 14.34C13.3106 14.4151 13.3177 14.4952 13.306 14.5737C13.2944 14.6521 13.2642 14.7267 13.218 14.7912C13.1718 14.8557 13.1109 14.9082 13.0404 14.9445C12.9699 14.9808 12.8917 14.9998 12.8124 15Z" fill="#FFC23D"/>
</svg>
